# xmcd CD database file
#
# Track frame offsets:
#	150
#	20092
#	35129
#	53587
#	82994
#	101120
#	126636
#	147694
#	164199
#	193110
#	210607
#	231588
#	244995
#	271793
#	292940
#
# Disc length: 4249 seconds
#
# Revision: 0
# Processed by: cddbd v1.5.2PL0 Copyright (c) Steve Scherf et al.
# Submitted via: CDex 1.70beta2
#
DISCID=f110970f
DTITLE=Orquesta Broadway - Pasaporte Al Sabor
DYEAR=1900
DGENRE=Salsa
TTITLE0=Isla Del Encanto
TTITLE1=Presentimiento
TTITLE2=Guajira De Amor
TTITLE3=Barrio Del Pilar
TTITLE4=Arrepiéntete
TTITLE5=Quedate Conmigo
TTITLE6=El Material
TTITLE7=Pregúntame Cómo Estoy
TTITLE8=El Bailarín
TTITLE9=No Se Va A Poder
TTITLE10=Pelencho
TTITLE11=La Negra Furlo
TTITLE12=Sin Confianza Conmigo
TTITLE13=Ven A Bailar Montuno
TTITLE14=Dónde Has Estado
EXTD=
EXTT0=
EXTT1=
EXTT2=
EXTT3=
EXTT4=
EXTT5=
EXTT6=
EXTT7=
EXTT8=
EXTT9=
EXTT10=
EXTT11=
EXTT12=
EXTT13=
EXTT14=
PLAYORDER=
